<svg xmlns="http://www.w3.org/2000/svg" width="8.298" height="12.486" viewBox="8.988 14.264 8.298 12.486"><g data-name="https://www.flaticon.com/free-icon/vector_681630?related_id=681630"><path d="M17.535 23.57c0 .211-.177.382-.396.382H11.69v2.285h.905c.218 0 .396.17.396.381s-.178.382-.396.382h-1.301a.389.389 0 0 1-.396-.382V23.57c0-.21.177-.382.396-.382h.514l-2.515-4.077a.37.37 0 0 1 0-.39l2.484-4.02a.404.404 0 0 1 .543-.133c.188.107.25.342.138.523l-2.364 3.825 2.635 4.272h4.41a.39.39 0 0 1 .396.382Z" fill="#191919" fill-rule="evenodd"/><path d="M17.535 23.57s0 0 0 0c0 .211-.177.382-.396.382H11.69v2.285h.905c.218 0 .396.17.396.381s-.178.382-.396.382h-1.301a.389.389 0 0 1-.396-.382V23.57c0-.21.177-.382.396-.382h.514l-2.515-4.077a.37.37 0 0 1 0-.39l2.484-4.02a.404.404 0 0 1 .543-.133c.188.107.25.342.138.523l-2.364 3.825 2.635 4.272h4.41a.39.39 0 0 1 .396.382Z" stroke-linejoin="round" stroke-linecap="round" stroke-width=".5" stroke="#191919" fill="transparent"/></g></svg>